<?xml version="1.0" encoding="UTF-8"?>
<!DOCTYPE svg PUBLIC "-//W3C//DTD SVG 1.1//EN" "http://www.w3.org/Graphics/SVG/1.1/DTD/svg11.dtd">
<svg xmlns="http://www.w3.org/2000/svg" version="1.1" width="250px" height="250px" style="shape-rendering:geometricPrecision; text-rendering:geometricPrecision; image-rendering:optimizeQuality; fill-rule:evenodd; clip-rule:evenodd" xmlns:xlink="http://www.w3.org/1999/xlink">
<g><path style="opacity:0.365" fill="#979798" d="M 69.5,67.5 C 69.5,66.8333 69.5,66.1667 69.5,65.5C 72.1459,64.8356 74.9792,64.5022 78,64.5C 81.3552,64.375 84.5219,64.875 87.5,66C 81.4023,65.1892 75.4023,65.6892 69.5,67.5 Z"/></g>
<g><path style="opacity:0.981" fill="#f2f2f2" d="M 129.5,84.5 C 129.5,85.1667 129.167,85.5 128.5,85.5C 118.628,80.7092 108.295,77.2092 97.5,75C 89.2298,73.3869 81.5632,74.7202 74.5,79C 70.734,86.0004 70.5673,93.167 74,100.5C 77.9211,108.887 83.0878,116.22 89.5,122.5C 107.616,144.416 130.283,159.916 157.5,169C 167.125,172.573 176.792,172.906 186.5,170C 191.079,166.675 193.413,162.175 193.5,156.5C 195.759,172.918 188.426,180.918 171.5,180.5C 161.481,179.929 151.814,177.763 142.5,174C 133.659,170.078 124.992,165.912 116.5,161.5C 115.198,159.178 113.198,157.845 110.5,157.5C 94.9378,146.107 81.1045,132.774 69,117.5C 60.3576,107.073 56.1909,95.0734 56.5,81.5C 57.7362,79.351 58.7362,77.0177 59.5,74.5C 67.1885,68.8223 75.8552,66.6557 85.5,68C 101.569,70.0745 116.236,75.5745 129.5,84.5 Z"/></g>
<g><path style="opacity:0.3" fill="#9f9f9f" d="M 129.5,84.5 C 136.627,88.2369 143.294,92.7369 149.5,98C 147.402,97.9678 145.402,97.3011 143.5,96C 138.434,92.4778 133.434,88.9778 128.5,85.5C 129.167,85.5 129.5,85.1667 129.5,84.5 Z"/></g>
<g><path style="opacity:0.968" fill="#f7f7f7" d="M 156.5,100.5 C 165.5,100.5 174.5,100.5 183.5,100.5C 183.5,104.833 183.5,109.167 183.5,113.5C 181.5,113.5 179.5,113.5 177.5,113.5C 177.5,122.833 177.5,132.167 177.5,141.5C 179.792,141.244 181.959,141.577 184,142.5C 184.796,146.755 184.629,150.921 183.5,155C 174.173,155.5 164.839,155.666 155.5,155.5C 155.5,150.833 155.5,146.167 155.5,141.5C 157.833,141.5 160.167,141.5 162.5,141.5C 162.5,132.167 162.5,122.833 162.5,113.5C 160.5,113.5 158.5,113.5 156.5,113.5C 156.5,109.167 156.5,104.833 156.5,100.5 Z"/></g>
<g><path style="opacity:0.932" fill="#f5f5f5" d="M 89.5,122.5 C 89.5,119.833 89.5,117.167 89.5,114.5C 87.6693,113.948 86.0026,113.948 84.5,114.5C 83.6667,113.5 82.8333,112.5 82,111.5C 81.5014,107.848 81.3347,104.182 81.5,100.5C 89.1667,100.5 96.8333,100.5 104.5,100.5C 104.832,112.186 104.499,123.852 103.5,135.5C 98.8131,131.145 94.1464,126.812 89.5,122.5 Z"/></g>
<g><path style="opacity:0.992" fill="#f7f7f7" d="M 123.5,100.5 C 125.924,100.192 128.257,100.526 130.5,101.5C 136.525,115.416 143.025,129.083 150,142.5C 151.823,146.806 153.323,151.14 154.5,155.5C 149.456,155.827 144.456,155.494 139.5,154.5C 138.627,152.587 137.627,150.753 136.5,149C 130.833,148.667 125.167,148.333 119.5,148C 115.049,145.217 110.883,142.05 107,138.5C 111.415,125.442 116.915,112.775 123.5,100.5 Z M 125.5,125.5 C 126.376,125.369 127.043,125.702 127.5,126.5C 128.978,129.288 130.311,132.122 131.5,135C 128.446,135.821 125.446,135.655 122.5,134.5C 123.801,131.573 124.801,128.573 125.5,125.5 Z"/></g>
<g><path style="opacity:0.987" fill="#eeeeee" d="M 69.5,65.5 C 69.5,66.1667 69.5,66.8333 69.5,67.5C 65.008,68.3465 61.6746,70.6798 59.5,74.5C 57.1663,76.1757 56.1663,78.509 56.5,81.5C 54.8555,93.4423 57.6888,104.442 65,114.5C 74.9293,128.043 86.4293,140.043 99.5,150.5C 99.5,151.833 98.8333,152.5 97.5,152.5C 88.9053,156.233 80.2386,156.399 71.5,153C 67.9421,151.108 65.4421,148.275 64,144.5C 62.8399,139.566 62.3399,134.566 62.5,129.5C 65.5184,129.665 68.5184,129.498 71.5,129C 62.0184,118.875 55.5184,107.042 52,93.5C 48.8805,80.8086 53.0472,71.6419 64.5,66C 66.1341,65.5065 67.8008,65.3398 69.5,65.5 Z M 77.5,136.5 C 79.8031,138.325 82.1364,140.158 84.5,142C 80.2965,142.636 77.9631,140.803 77.5,136.5 Z"/></g>
<g><path style="opacity:0.958" fill="#d5d5d5" d="M 99.5,150.5 C 102.917,153.255 106.583,155.588 110.5,157.5C 111.802,159.822 113.802,161.155 116.5,161.5C 133.047,173.345 151.547,180.345 172,182.5C 186.379,182.502 194.712,175.502 197,161.5C 198.334,174.506 192.501,182.006 179.5,184C 163.811,185.329 148.811,182.662 134.5,176C 121.087,169.641 108.754,161.807 97.5,152.5C 98.8333,152.5 99.5,151.833 99.5,150.5 Z"/></g>
</svg>
